<?xml version="1.0" encoding="UTF-8" standalone="no"?>
<svg
   xmlns:dc="http://purl.org/dc/elements/1.1/"
   xmlns:cc="http://creativecommons.org/ns#"
   xmlns:rdf="http://www.w3.org/1999/02/22-rdf-syntax-ns#"
   xmlns:svg="http://www.w3.org/2000/svg"
   xmlns="http://www.w3.org/2000/svg"
   id="svg8"
   version="1.1"
   viewBox="0 0 18.12175 13.229167"
   height="50"
   width="68.491653">
  <defs
     id="defs2" />
  <metadata
     id="metadata5">
    <rdf:RDF>
      <cc:Work
         rdf:about="">
        <dc:format>image/svg+xml</dc:format>
        <dc:type
           rdf:resource="http://purl.org/dc/dcmitype/StillImage" />
        <dc:title></dc:title>
      </cc:Work>
    </rdf:RDF>
  </metadata>
  <path
     id="rect815"
     d="M 9.8873282,12.8043 9.8869095,0.42486654 1.3067988,6.6144325 Z"
     style="opacity:1;vector-effect:none;fill:#2f343f;fill-opacity:1;stroke:#2f343f;stroke-width:0.84981424;stroke-linecap:round;stroke-linejoin:round;stroke-miterlimit:4;stroke-dasharray:none;stroke-dashoffset:0;stroke-opacity:1" />
  <path
     style="opacity:1;vector-effect:none;fill:#2f343f;fill-opacity:1;stroke:none;stroke-width:0.91553646;stroke-linecap:butt;stroke-linejoin:round;stroke-miterlimit:4;stroke-dasharray:none;stroke-dashoffset:0;stroke-opacity:1"
     d="m 9.999777,5.0869174 v 3.0553327 c 0,0.8078891 -0.6503946,1.4582826 -1.4582837,1.4582826 H 1.4582838 C 0.65039464,9.6005327 4.3723204e-7,8.9501392 4.3723204e-7,8.1422501 V 5.0869174 C 4.3723204e-7,4.2790283 0.65039464,3.6286336 1.4582838,3.6286336 h 7.0832095 c 0.8078891,0 1.4582837,0.6503947 1.4582837,1.4582838 z"
     id="path822" />
  <g
     transform="translate(-2.7023022,-0.16794854)"
     id="g929">
    <path
       id="circle838"
       transform="matrix(0.26458334,0,0,0.26458334,2.7023022,0.16794854)"
       d="M 58.115234 0 L 53.5625 4.5527344 A 28.944722 28.944722 0 0 1 62.060547 25 A 28.944722 28.944722 0 0 1 53.560547 45.445312 L 58.115234 50 A 35.376884 35.376884 0 0 0 68.492188 25 A 35.376884 35.376884 0 0 0 58.115234 0 z "
       style="opacity:0.15;vector-effect:none;fill:#2f343f;fill-opacity:1;stroke:none;stroke-width:4.29988575;stroke-linecap:round;stroke-linejoin:round;stroke-miterlimit:4;stroke-dasharray:none;stroke-dashoffset:0;stroke-opacity:1" />
    <path
       id="circle834"
       transform="matrix(0.26458334,0,0,0.26458334,2.7023022,0.16794854)"
       d="M 51.296875 6.8203125 L 46.748047 11.369141 A 19.296482 19.296482 0 0 1 52.412109 25 A 19.296482 19.296482 0 0 1 46.746094 38.630859 L 51.296875 43.181641 A 25.728641 25.728641 0 0 0 58.84375 25 A 25.728641 25.728641 0 0 0 51.296875 6.8203125 z "
       style="opacity:1;vector-effect:none;fill:#2f343f;fill-opacity:1;stroke:none;stroke-width:3.12718964;stroke-linecap:round;stroke-linejoin:round;stroke-miterlimit:4;stroke-dasharray:none;stroke-dashoffset:0;stroke-opacity:1" />
    <path
       id="circle822"
       transform="matrix(0.26458334,0,0,0.26458334,2.7023022,0.16794854)"
       d="M 44.480469 13.636719 L 39.931641 18.185547 C 41.732052 19.985551 42.763043 22.431954 42.763672 25.001953 C 42.760186 27.570532 41.726427 30.012781 39.925781 31.810547 L 44.480469 36.365234 A 16.080401 16.080401 0 0 0 49.195312 25 A 16.080401 16.080401 0 0 0 44.480469 13.636719 z "
       style="opacity:1;vector-effect:none;fill:#2f343f;fill-opacity:1;stroke:none;stroke-width:1.95449364;stroke-linecap:round;stroke-linejoin:round;stroke-miterlimit:4;stroke-dasharray:none;stroke-dashoffset:0;stroke-opacity:1" />
  </g>
</svg>
